<svg width="323px" height="33px" viewBox="0 0 323 33" fill="none" xmlns="http://www.w3.org/2000/svg">
  <path d="M117.452 0H122.072L132.934 26.5675H133.309L144.171 0H148.79V32.0063H145.17V7.68835H144.856L134.868 32.0063H131.372L121.384 7.68835H121.073V32.0063H117.452V0Z" fill="black"/>
  <path d="M164.866 32.5079C162.555 32.5079 160.566 31.9954 158.897 30.9681C157.228 29.943 155.942 28.5039 155.042 26.6552C154.142 24.8064 153.693 22.6511 153.693 20.1934C153.693 17.7358 154.142 15.5651 155.042 13.6835C155.942 11.802 157.202 10.3344 158.818 9.27641C160.437 8.21844 162.327 7.69055 164.491 7.69055C165.74 7.69055 166.973 7.89864 168.191 8.31482C169.409 8.731 170.517 9.40565 171.516 10.3388C172.515 11.2719 173.31 12.5029 173.904 14.034C174.497 15.5651 174.793 17.451 174.793 19.6918V21.2536H156.315V18.0644H171.047C171.047 16.7107 170.78 15.5016 170.243 14.4392C169.707 13.3769 168.949 12.5379 167.965 11.9224C166.982 11.3069 165.825 11.0003 164.494 11.0003C163.026 11.0003 161.76 11.3617 160.693 12.0867C159.626 12.8117 158.807 13.7514 158.236 14.908C157.664 16.0645 157.377 17.3043 157.377 18.6273V20.752C157.377 22.5657 157.692 24.0989 158.321 25.3541C158.95 26.6092 159.828 27.562 160.952 28.2147C162.075 28.8653 163.381 29.1917 164.868 29.1917C165.836 29.1917 166.712 29.0537 167.499 28.7777C168.285 28.5017 168.964 28.0855 169.536 27.5269C170.108 26.9706 170.55 26.274 170.863 25.4395L174.423 26.4405C174.048 27.6496 173.419 28.7098 172.535 29.621C171.65 30.5322 170.557 31.2419 169.258 31.7457C167.957 32.2517 166.496 32.5036 164.873 32.5036L164.866 32.5079Z" fill="black"/>
  <path d="M182.873 0V32.0063H179.189V0H182.873Z" fill="black"/>
  <path d="M188.531 32.0063V0H192.216V11.8151H192.527C192.798 11.3989 193.175 10.8645 193.659 10.2139C194.143 9.56335 194.84 8.97851 195.751 8.46376C196.662 7.94901 197.897 7.69054 199.457 7.69054C201.474 7.69054 203.255 8.19653 204.795 9.20631C206.335 10.2161 207.537 11.6508 208.4 13.5039C209.264 15.3592 209.695 17.5474 209.695 20.0686C209.695 22.5897 209.264 24.8108 208.4 26.6727C207.537 28.5323 206.339 29.9692 204.81 30.9856C203.281 32.0019 201.518 32.5101 199.521 32.5101C197.981 32.5101 196.747 32.2517 195.821 31.7369C194.894 31.2222 194.183 30.6329 193.683 29.9714C193.184 29.3099 192.798 28.7601 192.529 28.3221H192.091V32.0107H188.531V32.0063ZM192.152 20.0029C192.152 21.8165 192.417 23.4133 192.947 24.7933C193.477 26.1733 194.253 27.2531 195.273 28.0285C196.292 28.8039 197.54 29.1938 199.019 29.1938C200.497 29.1938 201.847 28.7842 202.881 27.9672C203.917 27.1502 204.696 26.044 205.222 24.6531C205.748 23.2622 206.011 21.7136 206.011 20.0029C206.011 18.2921 205.752 16.7917 205.238 15.4315C204.723 14.0712 203.947 12.9935 202.911 12.1962C201.875 11.3989 200.579 11.0003 199.017 11.0003C197.455 11.0003 196.259 11.3792 195.24 12.1327C194.22 12.8884 193.451 13.9398 192.93 15.2891C192.408 16.6384 192.15 18.2089 192.15 20.0007L192.152 20.0029Z" fill="black"/>
  <path d="M223.716 32.508C221.552 32.508 219.655 31.9932 218.027 30.9615C216.4 29.9298 215.129 28.4864 214.218 26.6333C213.307 24.778 212.854 22.6117 212.854 20.1321C212.854 17.6526 213.309 15.449 214.218 13.585C215.129 11.7209 216.398 10.2709 218.027 9.24138C219.655 8.20969 221.552 7.69495 223.716 7.69495C225.88 7.69495 227.777 8.21188 229.404 9.24138C231.032 10.2731 232.302 11.7209 233.213 13.585C234.125 15.449 234.578 17.6329 234.578 20.1321C234.578 22.6314 234.122 24.7802 233.213 26.6333C232.302 28.4885 231.034 29.9298 229.404 30.9615C227.775 31.9932 225.88 32.508 223.716 32.508ZM223.716 29.1939C225.359 29.1939 226.712 28.7711 227.775 27.9278C228.837 27.0845 229.621 25.974 230.132 24.5984C230.642 23.2228 230.896 21.7333 230.896 20.1277C230.896 18.5222 230.64 17.0283 230.132 15.6418C229.623 14.2552 228.837 13.1359 227.775 12.2817C226.714 11.4274 225.361 11.0003 223.716 11.0003C222.071 11.0003 220.719 11.4274 219.657 12.2817C218.597 13.1359 217.81 14.2552 217.3 15.6418C216.79 17.0283 216.536 18.5222 216.536 20.1277C216.536 21.7333 216.79 23.2228 217.3 24.5984C217.81 25.974 218.595 27.0823 219.657 27.9278C220.719 28.7711 222.071 29.1939 223.716 29.1939Z" fill="black"/>
  <path d="M253.869 22.1933V8.00159H257.553V32.0063H253.869V27.9431H253.619C253.056 29.1632 252.182 30.1971 250.997 31.0447C249.812 31.8924 248.312 32.3174 246.503 32.3174C245.004 32.3174 243.673 31.9866 242.507 31.3251C241.342 30.6636 240.426 29.6626 239.761 28.3242C239.095 26.9859 238.762 25.2949 238.762 23.2534V8.00159H242.446V23.0059C242.446 24.7561 242.937 26.1536 243.92 27.194C244.904 28.2366 246.159 28.7558 247.69 28.7558C248.605 28.7558 249.539 28.5214 250.491 28.0526C251.444 27.5839 252.244 26.8654 252.894 25.8951C253.545 24.9269 253.869 23.6915 253.869 22.1911V22.1933Z" fill="black"/>
  <path d="M263.025 32.0063V8.00151H266.584V11.6266H266.834C267.272 10.4394 268.061 9.47566 269.206 8.7353C270.35 7.99494 271.642 7.62476 273.077 7.62476C273.346 7.62476 273.686 7.62914 274.091 7.64009C274.496 7.65104 274.803 7.66637 275.011 7.68609V11.4361C274.886 11.4054 274.603 11.355 274.161 11.2871C273.718 11.2192 273.254 11.1864 272.763 11.1864C271.598 11.1864 270.56 11.4295 269.651 11.9136C268.74 12.3977 268.021 13.0657 267.498 13.9134C266.972 14.7633 266.709 15.7293 266.709 16.8135V32.0041H263.025V32.0063Z" fill="black"/>
  <path d="M281.814 17.5671V32.0085H278.13V8.00158H281.689V11.7516H282.003C282.563 10.5337 283.418 9.55021 284.563 8.80547C285.707 8.06073 287.185 7.68835 288.997 7.68835C290.62 7.68835 292.039 8.01911 293.257 8.68061C294.475 9.34212 295.421 10.3431 296.098 11.6815C296.775 13.0198 297.112 14.7108 297.112 16.7523V32.0063H293.428V17.002C293.428 15.116 292.939 13.6441 291.96 12.5861C290.981 11.5282 289.641 11.0003 287.934 11.0003C286.758 11.0003 285.711 11.2565 284.789 11.7669C283.869 12.2773 283.142 13.022 282.611 14.0011C282.081 14.9802 281.816 16.1674 281.816 17.5649L281.814 17.5671Z" fill="black"/>
  <path d="M312.533 32.5079C310.222 32.5079 308.233 31.9954 306.564 30.9681C304.895 29.943 303.609 28.5039 302.709 26.6552C301.808 24.8064 301.359 22.6511 301.359 20.1934C301.359 17.7358 301.808 15.5651 302.709 13.6835C303.609 11.802 304.868 10.3344 306.485 9.27641C308.104 8.21844 309.994 7.69055 312.158 7.69055C313.407 7.69055 314.64 7.89864 315.858 8.31482C317.076 8.731 318.184 9.40565 319.183 10.3388C320.182 11.2719 320.977 12.5029 321.57 14.034C322.164 15.5651 322.46 17.451 322.46 19.6918V21.2536H303.981V18.0644H318.714C318.714 16.7107 318.447 15.5016 317.91 14.4392C317.373 13.3769 316.616 12.5379 315.632 11.9224C314.649 11.3069 313.492 11.0003 312.16 11.0003C310.693 11.0003 309.427 11.3617 308.36 12.0867C307.293 12.8117 306.474 13.7514 305.902 14.908C305.331 16.0645 305.044 17.3043 305.044 18.6273V20.752C305.044 22.5657 305.359 24.0989 305.988 25.3541C306.616 26.6092 307.495 27.562 308.618 28.2147C309.742 28.8653 311.048 29.1917 312.535 29.1917C313.503 29.1917 314.379 29.0537 315.166 28.7777C315.952 28.5017 316.631 28.0855 317.203 27.5269C317.774 26.9706 318.217 26.274 318.53 25.4395L322.089 26.4405C321.715 27.6496 321.086 28.7098 320.201 29.621C319.316 30.5322 318.223 31.2419 316.924 31.7457C315.623 32.2517 314.162 32.5036 312.539 32.5036L312.533 32.5079Z" fill="black"/>
  <path d="M8.94784 8.19873H0V0.00439453H27.7241V8.19873H18.7784V31.9757H8.94784V8.19873Z" fill="#EB0028"/>
  <path d="M29.2507 0.00439453H56.1644V8.19873H39.0879V12.1831H56.1644V19.797H39.0879V23.7813H56.1687V31.9757H29.2507V0.00439453Z" fill="#EB0028"/>
  <path d="M57.8203 0.00439453H73.9637C84.6047 0.00439453 88.3656 7.88551 88.3656 15.944C88.3656 25.7527 83.1787 31.9779 72.0427 31.9779H57.8203V0.00439453ZM67.6575 23.7813H71.5038C77.6326 23.7813 78.5285 18.8091 78.5285 15.806C78.5285 13.7952 77.8998 8.19873 70.7876 8.19873H67.6575V23.7813Z" fill="#EB0028"/>
  <path d="M102.5 19.7334L99.4995 14.7502L96.5732 19.7334H89.3645L96.2074 9.65748L89.6186 0.0218506H96.8294L99.4995 4.786L102.246 0.0218506H109.455L102.868 9.65967L109.711 19.7356H102.503L102.5 19.7334Z" fill="#EB0028"/>
  </svg>